<!-- SPDX-License-Identifier: LicenseRef-Proprietary  -->
<!-- SPDX-FileCopyrightText: Critical Section GmbH -->
<svg width="662" height="143" viewBox="0 0 662 143" fill="none" xmlns="http://www.w3.org/2000/svg">
<path d="M95.2215 44.1856C94.3787 44.4987 93.4338 44.2418 92.8342 43.5721C85.3841 35.2498 74.5543 30.0118 62.5001 30.0118C50.4459 30.0118 39.616 35.2498 32.1659 43.5721C31.5664 44.2418 30.6215 44.4987 29.7786 44.1856L1.6883 33.7515C0.065425 33.1486 -0.519707 31.155 0.5203 29.7718L22.1295 1.03325C22.6186 0.38273 23.3855 0 24.1998 0L100.8 6.06625e-06C101.614 6.06625e-06 102.381 0.382738 102.871 1.03326L124.48 29.7719C125.52 31.155 124.935 33.1486 123.312 33.7515L95.2215 44.1856Z" fill="#194E80"/>
<path d="M24.1998 86.833C24.782 86.833 25.3066 87.1797 25.5509 87.7077C32.0013 101.647 46.1203 111.319 62.5001 111.319C78.8799 111.319 92.999 101.647 99.4494 87.7075C99.6936 87.1797 100.218 86.833 100.8 86.833C101.614 86.833 102.381 87.2157 102.871 87.8662L124.48 116.605C125.52 117.988 124.935 119.982 123.312 120.584L63.4023 142.838C62.8202 143.054 62.1798 143.054 61.5977 142.838L1.6883 120.584C0.065425 119.982 -0.519707 117.988 0.5203 116.605L22.1295 87.8662C22.6186 87.2157 23.3855 86.833 24.1998 86.833Z" fill="#194E80"/>
<path d="M87.0013 70.6655C87.0013 84.1864 76.0317 95.1472 62.5001 95.1472C48.9685 95.1472 37.9989 84.1864 37.9989 70.6655C37.9989 57.1446 48.9685 46.1838 62.5001 46.1838C76.0317 46.1838 87.0013 57.1446 87.0013 70.6655Z" fill="#194E80"/>
<path d="M161.692 104.939V64.966H154.274V51.5679H161.692V46.8066C161.692 39.5723 163.538 33.8145 167.229 29.533C170.92 25.1777 175.829 23 181.956 23C186.828 23 191.884 24.1442 197.126 26.4326L193.914 39.72C192.733 39.2032 191.405 38.7972 189.928 38.502C188.452 38.1329 187.123 37.9483 185.942 37.9483C181.587 37.9483 179.409 40.6796 179.409 46.1422V51.5679H192.918V64.966H179.409V104.939H161.692Z" fill="#194E80"/>
<path d="M225.678 106.046C219.108 106.046 213.498 104.681 208.847 101.949C204.197 99.218 200.616 95.6008 198.107 91.0979C195.67 86.5949 194.452 81.7229 194.452 76.4818C194.452 70.8715 195.67 65.7411 198.107 61.0905C200.543 56.4399 204.086 52.7121 208.736 49.907C213.387 47.1019 219.034 45.6993 225.678 45.6993C232.248 45.6993 237.858 47.1019 242.509 49.907C247.159 52.7121 250.666 56.403 253.028 60.9798C255.464 65.5566 256.682 70.4655 256.682 75.7067C256.682 77.8474 256.534 79.7298 256.239 81.3538H213.276C213.572 85.2662 214.974 88.2559 217.484 90.3228C220.068 92.3159 222.983 93.3125 226.231 93.3125C228.815 93.3125 231.288 92.685 233.65 91.4301C236.012 90.1752 237.637 88.4773 238.522 86.3366L253.581 90.5443C251.293 95.121 247.713 98.8489 242.841 101.728C238.043 104.607 232.322 106.046 225.678 106.046ZM212.833 70.5024H238.079C237.71 66.8115 236.345 63.8956 233.982 61.7549C231.694 59.5403 228.852 58.433 225.456 58.433C222.061 58.433 219.182 59.5403 216.82 61.7549C214.531 63.9695 213.202 66.8853 212.833 70.5024Z" fill="#194E80"/>
<path d="M299.369 61.9764C295.088 62.0502 291.212 62.7514 287.743 64.0802C284.273 65.4089 281.763 67.402 280.213 70.0595V104.939H262.497V46.8066H278.774V58.5438C280.767 54.6314 283.351 51.5679 286.525 49.3533C289.699 47.1388 293.021 45.9946 296.49 45.9207C297.967 45.9207 298.926 45.9577 299.369 46.0315V61.9764Z" fill="#194E80"/>
<path d="M341.489 61.9764C337.208 62.0502 333.332 62.7514 329.863 64.0802C326.393 65.4089 323.883 67.402 322.333 70.0595V104.939H304.617V46.8066H320.894V58.5438C322.887 54.6314 325.471 51.5679 328.645 49.3533C331.819 47.1388 335.141 45.9946 338.61 45.9207C340.087 45.9207 341.046 45.9577 341.489 46.0315V61.9764Z" fill="#194E80"/>
<path d="M373.986 106.046C367.343 106.046 361.695 104.644 357.045 101.839C352.468 99.0334 348.962 95.3425 346.526 90.7657C344.09 86.1889 342.872 81.2431 342.872 75.9281C342.872 70.5393 344.09 65.5566 346.526 60.9798C348.962 56.403 352.505 52.7121 357.156 49.907C361.806 47.1019 367.416 45.6993 373.986 45.6993C380.556 45.6993 386.166 47.1019 390.817 49.907C395.468 52.7121 399.011 56.403 401.447 60.9798C403.883 65.5566 405.101 70.5393 405.101 75.9281C405.101 81.2431 403.883 86.1889 401.447 90.7657C399.011 95.3425 395.468 99.0334 390.817 101.839C386.166 104.644 380.556 106.046 373.986 106.046ZM361.031 75.9281C361.031 80.4311 362.249 84.0851 364.685 86.8902C367.195 89.6953 370.295 91.0979 373.986 91.0979C377.603 91.0979 380.63 89.6953 383.066 86.8902C385.576 84.0851 386.831 80.4311 386.831 75.9281C386.831 71.4252 385.576 67.7711 383.066 64.966C380.63 62.1609 377.603 60.7583 373.986 60.7583C370.295 60.7583 367.195 62.1609 364.685 64.966C362.249 67.7711 361.031 71.4252 361.031 75.9281Z" fill="#194E80"/>
<path d="M439.466 106.046C432.97 106.046 427.359 104.644 422.635 101.839C417.984 99.0334 414.404 95.3425 411.894 90.7657C409.458 86.1889 408.24 81.2062 408.24 75.8174C408.24 70.5024 409.458 65.5566 411.894 60.9798C414.404 56.403 417.984 52.7121 422.635 49.907C427.285 47.1019 432.896 45.6993 439.466 45.6993C446.109 45.6993 451.72 47.1388 456.296 50.0177C460.947 52.8228 464.416 56.5138 466.705 61.0905L449.431 66.2948C447.143 62.6038 443.784 60.7583 439.355 60.7583C435.738 60.7583 432.674 62.124 430.164 64.8553C427.655 67.5866 426.4 71.2406 426.4 75.8174C426.4 80.3942 427.655 84.0851 430.164 86.8902C432.674 89.6953 435.738 91.0979 439.355 91.0979C441.569 91.0979 443.599 90.5812 445.445 89.5477C447.29 88.4404 448.656 87.0379 449.542 85.34L466.815 90.655C464.675 95.1579 461.242 98.8489 456.518 101.728C451.867 104.607 446.183 106.046 439.466 106.046Z" fill="#194E80"/>
<path d="M499.86 106.046C493.29 106.046 487.68 104.681 483.029 101.949C478.379 99.218 474.799 95.6008 472.289 91.0979C469.853 86.5949 468.635 81.7229 468.635 76.4818C468.635 70.8715 469.853 65.7411 472.289 61.0905C474.725 56.4399 478.268 52.7121 482.919 49.907C487.569 47.1019 493.216 45.6993 499.86 45.6993C506.43 45.6993 512.04 47.1019 516.691 49.907C521.341 52.7121 524.848 56.403 527.21 60.9798C529.646 65.5566 530.864 70.4655 530.864 75.7067C530.864 77.8474 530.716 79.7298 530.421 81.3538H487.459C487.754 85.2662 489.156 88.2559 491.666 90.3228C494.25 92.3159 497.166 93.3125 500.414 93.3125C502.997 93.3125 505.47 92.685 507.833 91.4301C510.195 90.1752 511.819 88.4773 512.705 86.3366L527.764 90.5443C525.475 95.121 521.895 98.8489 517.023 101.728C512.225 104.607 506.504 106.046 499.86 106.046ZM487.016 70.5024H512.262C511.893 66.8115 510.527 63.8956 508.165 61.7549C505.876 59.5403 503.034 58.433 499.639 58.433C496.243 58.433 493.364 59.5403 491.002 61.7549C488.713 63.9695 487.385 66.8853 487.016 70.5024Z" fill="#194E80"/>
<path d="M592.707 104.939H574.991V72.2741C574.991 68.4355 574.253 65.6673 572.776 63.9695C571.374 62.1978 569.491 61.312 567.129 61.312C564.693 61.312 562.22 62.2716 559.71 64.1909C557.201 66.1102 555.429 68.5831 554.395 71.6097V104.939H536.679V46.8066H552.624V56.5507C554.765 53.155 557.791 50.4975 561.704 48.5782C565.616 46.6589 570.119 45.6993 575.212 45.6993C578.977 45.6993 582.004 46.4006 584.292 47.8031C586.654 49.1319 588.426 50.9035 589.607 53.1181C590.862 55.2588 591.674 57.621 592.043 60.2047C592.486 62.7884 592.707 65.2982 592.707 67.7342V104.939Z" fill="#194E80"/>
<path d="M630.057 106.046C623.487 106.046 617.877 104.681 613.226 101.949C608.575 99.218 604.995 95.6008 602.485 91.0979C600.049 86.5949 598.831 81.7229 598.831 76.4818C598.831 70.8715 600.049 65.7411 602.485 61.0905C604.921 56.4399 608.465 52.7121 613.115 49.907C617.766 47.1019 623.413 45.6993 630.057 45.6993C636.627 45.6993 642.237 47.1019 646.887 49.907C651.538 52.7121 655.044 56.403 657.407 60.9798C659.843 65.5566 661.061 70.4655 661.061 75.7067C661.061 77.8474 660.913 79.7298 660.618 81.3538H617.655C617.95 85.2662 619.353 88.2559 621.863 90.3228C624.446 92.3159 627.362 93.3125 630.61 93.3125C633.194 93.3125 635.667 92.685 638.029 91.4301C640.391 90.1752 642.015 88.4773 642.901 86.3366L657.96 90.5443C655.672 95.121 652.092 98.8489 647.22 101.728C642.421 104.607 636.7 106.046 630.057 106.046ZM617.212 70.5024H642.458C642.089 66.8115 640.724 63.8956 638.361 61.7549C636.073 59.5403 633.231 58.433 629.835 58.433C626.44 58.433 623.561 59.5403 621.198 61.7549C618.91 63.9695 617.581 66.8853 617.212 70.5024Z" fill="#194E80"/>
</svg>
