<!-- SPDX-License-Identifier: CC-BY-ND-4.0  -->
<!-- SPDX-FileCopyrightText: Critical Section GmbH -->
<!-- Please attribute this logo with: "Ferrocene is a registered trademark of Critical Section GmbH" -->
<svg width="179" height="204" viewBox="0 0 179 204" fill="none" xmlns="http://www.w3.org/2000/svg">
<style>
path { fill: #194e80 }
@media (prefers-color-scheme: dark) { path { fill: #fff } }
</style>
<path d="M136.357 63.1915C135.15 63.6359 133.797 63.2713 132.939 62.3206C122.27 50.5064 106.762 43.0707 89.5001 43.0707C72.2385 43.0707 56.7301 50.5064 46.0616 62.3206C45.2031 63.2713 43.85 63.636 42.643 63.1916L2.41765 48.3794C0.0936887 47.5236 -0.74422 44.6935 0.745069 42.73L31.6894 1.93327C32.3899 1.00981 33.4881 0.466492 34.6542 0.466492L144.346 0.4665C145.512 0.4665 146.61 1.00982 147.311 1.93328L178.255 42.73C179.744 44.6935 178.906 47.5237 176.582 48.3794L136.357 63.1915Z"/>
<path d="M34.6542 123.733C35.4878 123.733 36.239 124.225 36.5888 124.975C45.8259 144.763 66.0443 158.493 89.5001 158.493C112.956 158.493 133.174 144.763 142.412 124.974C142.761 124.225 143.512 123.733 144.346 123.733C145.512 123.733 146.61 124.276 147.311 125.2L178.255 165.996C179.744 167.96 178.906 170.79 176.582 171.646L90.7921 203.236C89.9586 203.543 89.0414 203.543 88.2079 203.236L2.41765 171.646C0.0936887 170.79 -0.74422 167.96 0.745069 165.996L31.6894 125.2C32.3899 124.276 33.4881 123.733 34.6542 123.733Z"/>
<path d="M124.586 100.782C124.586 119.976 108.877 135.536 89.5001 135.536C70.1229 135.536 54.4145 119.976 54.4145 100.782C54.4145 81.5878 70.1229 66.028 89.5001 66.028C108.877 66.028 124.586 81.5878 124.586 100.782Z"/>
</svg>
